<?xml version="1.0" encoding="UTF-8"?>
<!DOCTYPE svg PUBLIC "-//W3C//DTD SVG 1.1//EN" "http://www.w3.org/Graphics/SVG/1.1/DTD/svg11.dtd">
<svg xmlns="http://www.w3.org/2000/svg" version="1.1" width="150px" height="150px" style="shape-rendering:geometricPrecision; text-rendering:geometricPrecision; image-rendering:optimizeQuality; fill-rule:evenodd; clip-rule:evenodd" xmlns:xlink="http://www.w3.org/1999/xlink">
<g><path style="opacity:0.795" fill="#e2e2e5" d="M 53.5,11.5 C 51.544,13.1751 50.2107,12.8418 49.5,10.5C 49.4701,9.50278 49.9701,8.83611 51,8.5C 52.7491,8.74831 53.5824,9.74831 53.5,11.5 Z"/></g>
<g><path style="opacity:0.631" fill="#e5e5e7" d="M 54.5,15.5 C 67.9898,16.4957 81.6565,16.829 95.5,16.5C 97.5195,17.5383 97.8528,18.8716 96.5,20.5C 82.1628,20.6666 67.8295,20.4999 53.5,20C 51.249,19.2525 49.9156,17.7525 49.5,15.5C 51.0496,14.2801 52.7163,14.2801 54.5,15.5 Z"/></g>
<g><path style="opacity:0.714" fill="#e7e8e9" d="M 100.5,16.5 C 102.708,17.023 104.208,18.3563 105,20.5C 106.282,25.7052 105.449,30.3718 102.5,34.5C 90.957,34.6029 79.6237,34.6029 68.5,34.5C 69.9748,32.3101 71.9748,30.9767 74.5,30.5C 81.5,30.5 88.5,30.5 95.5,30.5C 97.5,30.5 99.5,30.5 101.5,30.5C 101.81,27.2869 101.477,24.2869 100.5,21.5C 99.1667,19.8333 99.1667,18.1667 100.5,16.5 Z"/></g>
<g><path style="opacity:0.494" fill="#3e3265" d="M 49.5,10.5 C 50.2107,12.8418 51.544,13.1751 53.5,11.5C 67.8372,11.3334 82.1705,11.5001 96.5,12C 98.3844,13.0487 99.7177,14.5487 100.5,16.5C 99.1667,18.1667 99.1667,19.8333 100.5,21.5C 100.939,25.7152 99.2726,28.7152 95.5,30.5C 88.5,30.5 81.5,30.5 74.5,30.5C 71.8333,30.5 69.1667,30.5 66.5,30.5C 66.1568,32.4832 66.8235,33.8166 68.5,34.5C 79.6237,34.6029 90.957,34.6029 102.5,34.5C 113.838,34.3335 125.172,34.5001 136.5,35C 138.141,36.129 139.141,37.629 139.5,39.5C 139.823,46.0221 139.49,52.3554 138.5,58.5C 136.547,52.9262 135.88,46.9262 136.5,40.5C 136.586,39.5041 136.252,38.6708 135.5,38C 92.998,37.1686 50.6647,37.3353 8.5,38.5C 7.66175,38.8417 7.32842,39.5084 7.5,40.5C 7.33337,61.8359 7.50004,83.1693 8,104.5C 11.0567,105.451 14.2234,105.784 17.5,105.5C 18.4912,98.6866 18.8245,91.6866 18.5,84.5C 18.5,83.8333 18.5,83.1667 18.5,82.5C 18.3284,81.5084 18.6618,80.8417 19.5,80.5C 19.5,81.1667 19.5,81.8333 19.5,82.5C 19.8276,93.0135 19.4942,103.347 18.5,113.5C 18.5,111.5 18.5,109.5 18.5,107.5C 15.2869,107.19 12.2869,107.523 9.5,108.5C 6.90902,107.746 5.07568,106.079 4,103.5C 3.03279,81.4361 3.36612,59.4361 5,37.5C 5.83333,36.6667 6.66667,35.8333 7.5,35C 25.8303,34.5001 44.1636,34.3334 62.5,34.5C 61.9586,31.3484 62.9586,28.8484 65.5,27C 75.1667,26.6667 84.8333,26.3333 94.5,26C 96.1922,24.5993 96.8588,22.7659 96.5,20.5C 97.8528,18.8716 97.5195,17.5383 95.5,16.5C 82.0102,15.5043 68.3435,15.171 54.5,15.5C 52.7163,14.2801 51.0496,14.2801 49.5,15.5C 44.7388,13.3838 43.2388,9.71713 45,4.5C 45.414,4.04265 45.914,3.70931 46.5,3.5C 48.0181,5.62078 49.0181,7.95411 49.5,10.5 Z"/></g>
<g><path style="opacity:1" fill="#f2f1f4" d="M 136.5,40.5 C 136.167,40.5 135.833,40.5 135.5,40.5C 93.1667,39.8333 50.8333,39.1667 8.5,38.5C 50.6647,37.3353 92.998,37.1686 135.5,38C 136.252,38.6708 136.586,39.5041 136.5,40.5 Z"/></g>
<g><path style="opacity:1" fill="#b0e2fa" d="M 8.5,38.5 C 50.8333,39.1667 93.1667,39.8333 135.5,40.5C 92.8333,40.5 50.1667,40.5 7.5,40.5C 7.32842,39.5084 7.66175,38.8417 8.5,38.5 Z"/></g>
<g><path style="opacity:1" fill="#6abfee" d="M 7.5,40.5 C 50.1667,40.5 92.8333,40.5 135.5,40.5C 135.833,40.5 136.167,40.5 136.5,40.5C 135.88,46.9262 136.547,52.9262 138.5,58.5C 138.5,59.5 138.5,60.5 138.5,61.5C 137.213,62.8714 136.547,64.7047 136.5,67C 136.547,69.2953 137.213,71.1286 138.5,72.5C 138.5,73.5 138.5,74.5 138.5,75.5C 136.688,84.7814 135.855,94.4481 136,104.5C 132.943,105.451 129.777,105.784 126.5,105.5C 126.5,98.8333 126.5,92.1667 126.5,85.5C 128.735,85.7947 130.735,85.4614 132.5,84.5C 132.5,81.1667 132.5,77.8333 132.5,74.5C 129.167,74.5 125.833,74.5 122.5,74.5C 122.5,75.5 122.5,76.5 122.5,77.5C 120.833,77.5 119.167,77.5 117.5,77.5C 117.5,71.5 117.5,65.5 117.5,59.5C 113.833,59.5 110.167,59.5 106.5,59.5C 106.5,61.5 106.5,63.5 106.5,65.5C 104.833,65.5 103.167,65.5 101.5,65.5C 101.5,63.5 101.5,61.5 101.5,59.5C 97.8333,59.5 94.1667,59.5 90.5,59.5C 90.5,62.8333 90.5,66.1667 90.5,69.5C 92.631,70.3138 94.9644,70.8138 97.5,71C 95.9419,71.21 94.6085,71.71 93.5,72.5C 91.5891,72.5743 90.4224,73.5743 90,75.5C 89.5008,80.1548 89.3342,84.8215 89.5,89.5C 77.8333,89.5 66.1667,89.5 54.5,89.5C 54.6658,84.8215 54.4992,80.1548 54,75.5C 51.8038,72.8748 48.9705,71.8748 45.5,72.5C 45.5,71.5 45.5,70.5 45.5,69.5C 48.1667,69.5 50.8333,69.5 53.5,69.5C 53.5,66.1667 53.5,62.8333 53.5,59.5C 49.8333,59.5 46.1667,59.5 42.5,59.5C 42.5,61.5 42.5,63.5 42.5,65.5C 40.8333,65.5 39.1667,65.5 37.5,65.5C 37.5,63.5 37.5,61.5 37.5,59.5C 33.8333,59.5 30.1667,59.5 26.5,59.5C 26.5,65.8333 26.5,72.1667 26.5,78.5C 24.8333,78.5 23.1667,78.5 21.5,78.5C 21.5,77.1667 21.5,75.8333 21.5,74.5C 18.1667,74.5 14.8333,74.5 11.5,74.5C 11.5,77.8333 11.5,81.1667 11.5,84.5C 13.2646,85.4614 15.2646,85.7947 17.5,85.5C 17.5,92.1667 17.5,98.8333 17.5,105.5C 14.2234,105.784 11.0567,105.451 8,104.5C 7.50004,83.1693 7.33337,61.8359 7.5,40.5 Z"/></g>
<g><path style="opacity:0.798" fill="#e4e5e7" d="M 139.5,39.5 C 142.518,40.3534 144.351,42.3534 145,45.5C 145.667,66.1667 145.667,86.8333 145,107.5C 144.654,109.848 143.487,111.681 141.5,113C 138.183,113.498 134.85,113.665 131.5,113.5C 132.336,119.818 130.836,125.485 127,130.5C 126.667,134.5 126.333,138.5 126,142.5C 125.167,143.333 124.333,144.167 123.5,145C 115.5,145.667 107.5,145.667 99.5,145C 97.6243,144.082 96.6243,142.582 96.5,140.5C 103.655,139.671 110.989,139.171 118.5,139C 119,138.5 119.5,138 120,137.5C 120.333,133.5 120.667,129.5 121,125.5C 123.575,122.274 125.075,118.607 125.5,114.5C 125.5,114.167 125.5,113.833 125.5,113.5C 126.451,112.081 126.784,110.415 126.5,108.5C 129.385,108.806 132.052,108.473 134.5,107.5C 136.752,107.084 138.252,105.751 139,103.5C 139.824,93.9908 139.658,84.6575 138.5,75.5C 138.5,74.5 138.5,73.5 138.5,72.5C 139.833,68.8333 139.833,65.1667 138.5,61.5C 138.5,60.5 138.5,59.5 138.5,58.5C 139.49,52.3554 139.823,46.0221 139.5,39.5 Z"/></g>
<g><path style="opacity:1" fill="#3b3b72" d="M 50.5,44.5 C 54.1667,44.5 57.8333,44.5 61.5,44.5C 61.5,47.8333 61.5,51.1667 61.5,54.5C 57.8333,54.5 54.1667,54.5 50.5,54.5C 50.5,51.1667 50.5,47.8333 50.5,44.5 Z"/></g>
<g><path style="opacity:1" fill="#3b3b72" d="M 66.5,44.5 C 70.1667,44.5 73.8333,44.5 77.5,44.5C 77.5,47.8333 77.5,51.1667 77.5,54.5C 73.8333,54.5 70.1667,54.5 66.5,54.5C 66.5,51.1667 66.5,47.8333 66.5,44.5 Z"/></g>
<g><path style="opacity:1" fill="#3f4177" d="M 82.5,44.5 C 86.1667,44.5 89.8333,44.5 93.5,44.5C 93.665,47.8499 93.4983,51.1832 93,54.5C 89.6064,55.4558 86.1064,55.7892 82.5,55.5C 82.5,51.8333 82.5,48.1667 82.5,44.5 Z"/></g>
<g><path style="opacity:1" fill="#0286eb" d="M 53.5,46.5 C 55.1667,46.5 56.8333,46.5 58.5,46.5C 58.5,48.5 58.5,50.5 58.5,52.5C 56.8333,52.5 55.1667,52.5 53.5,52.5C 53.5,50.5 53.5,48.5 53.5,46.5 Z"/></g>
<g><path style="opacity:1" fill="#0286eb" d="M 69.5,46.5 C 71.1667,46.5 72.8333,46.5 74.5,46.5C 74.5,48.5 74.5,50.5 74.5,52.5C 72.8333,52.5 71.1667,52.5 69.5,52.5C 69.5,50.5 69.5,48.5 69.5,46.5 Z"/></g>
<g><path style="opacity:1" fill="#3a366b" d="M 98.5,44.5 C 102.167,44.5 105.833,44.5 109.5,44.5C 109.5,47.8333 109.5,51.1667 109.5,54.5C 105.833,54.5 102.167,54.5 98.5,54.5C 98.5,51.1667 98.5,47.8333 98.5,44.5 Z"/></g>
<g><path style="opacity:1" fill="#0484e7" d="M 84.5,46.5 C 86.5,46.5 88.5,46.5 90.5,46.5C 90.5,48.5 90.5,50.5 90.5,52.5C 88.5,52.5 86.5,52.5 84.5,52.5C 84.5,50.5 84.5,48.5 84.5,46.5 Z"/></g>
<g><path style="opacity:1" fill="#0582e5" d="M 100.5,46.5 C 102.5,46.5 104.5,46.5 106.5,46.5C 106.5,48.5 106.5,50.5 106.5,52.5C 104.5,52.5 102.5,52.5 100.5,52.5C 100.5,50.5 100.5,48.5 100.5,46.5 Z"/></g>
<g><path style="opacity:1" fill="#3b3469" d="M 18.5,44.5 C 22.1667,44.5 25.8333,44.5 29.5,44.5C 29.5,47.8333 29.5,51.1667 29.5,54.5C 25.8333,54.5 22.1667,54.5 18.5,54.5C 18.5,51.1667 18.5,47.8333 18.5,44.5 Z"/></g>
<g><path style="opacity:1" fill="#0581e3" d="M 21.5,46.5 C 23.5,46.5 25.5,46.5 27.5,46.5C 27.5,48.5 27.5,50.5 27.5,52.5C 25.5,52.5 23.5,52.5 21.5,52.5C 21.5,50.5 21.5,48.5 21.5,46.5 Z"/></g>
<g><path style="opacity:1" fill="#3c376c" d="M 34.5,44.5 C 38.1667,44.5 41.8333,44.5 45.5,44.5C 45.5,48.1667 45.5,51.8333 45.5,55.5C 42.1501,55.665 38.8168,55.4983 35.5,55C 34.5442,51.6064 34.2108,48.1064 34.5,44.5 Z"/></g>
<g><path style="opacity:1" fill="#0682e4" d="M 37.5,46.5 C 39.5,46.5 41.5,46.5 43.5,46.5C 43.5,48.5 43.5,50.5 43.5,52.5C 41.5,52.5 39.5,52.5 37.5,52.5C 37.5,50.5 37.5,48.5 37.5,46.5 Z"/></g>
<g><path style="opacity:1" fill="#383066" d="M 114.5,44.5 C 117.833,44.5 121.167,44.5 124.5,44.5C 124.5,47.8333 124.5,51.1667 124.5,54.5C 121.167,54.5 117.833,54.5 114.5,54.5C 114.5,51.1667 114.5,47.8333 114.5,44.5 Z"/></g>
<g><path style="opacity:1" fill="#0581e3" d="M 116.5,46.5 C 118.5,46.5 120.5,46.5 122.5,46.5C 122.5,48.5 122.5,50.5 122.5,52.5C 120.5,52.5 118.5,52.5 116.5,52.5C 116.5,50.5 116.5,48.5 116.5,46.5 Z"/></g>
<g><path style="opacity:1" fill="#383167" d="M 11.5,59.5 C 14.8333,59.5 18.1667,59.5 21.5,59.5C 21.5,62.8333 21.5,66.1667 21.5,69.5C 18.1667,69.5 14.8333,69.5 11.5,69.5C 11.5,66.1667 11.5,62.8333 11.5,59.5 Z"/></g>
<g><path style="opacity:1" fill="#383167" d="M 122.5,59.5 C 125.833,59.5 129.167,59.5 132.5,59.5C 132.5,62.8333 132.5,66.1667 132.5,69.5C 129.167,69.5 125.833,69.5 122.5,69.5C 122.5,66.1667 122.5,62.8333 122.5,59.5 Z"/></g>
<g><path style="opacity:1" fill="#535887" d="M 138.5,61.5 C 139.833,65.1667 139.833,68.8333 138.5,72.5C 137.213,71.1286 136.547,69.2953 136.5,67C 136.547,64.7047 137.213,62.8714 138.5,61.5 Z"/></g>
<g><path style="opacity:1" fill="#0581e2" d="M 13.5,61.5 C 15.5,61.5 17.5,61.5 19.5,61.5C 19.5,63.5 19.5,65.5 19.5,67.5C 17.5,67.5 15.5,67.5 13.5,67.5C 13.5,65.5 13.5,63.5 13.5,61.5 Z"/></g>
<g><path style="opacity:1" fill="#42386b" d="M 93.5,72.5 C 95.1667,72.5 96.8333,72.5 98.5,72.5C 98.5,71.5 98.5,70.5 98.5,69.5C 95.8333,69.5 93.1667,69.5 90.5,69.5C 90.5,66.1667 90.5,62.8333 90.5,59.5C 94.1667,59.5 97.8333,59.5 101.5,59.5C 101.5,61.5 101.5,63.5 101.5,65.5C 103.167,65.5 104.833,65.5 106.5,65.5C 106.5,63.5 106.5,61.5 106.5,59.5C 110.167,59.5 113.833,59.5 117.5,59.5C 117.5,65.5 117.5,71.5 117.5,77.5C 119.167,77.5 120.833,77.5 122.5,77.5C 122.5,76.5 122.5,75.5 122.5,74.5C 125.833,74.5 129.167,74.5 132.5,74.5C 132.5,77.8333 132.5,81.1667 132.5,84.5C 130.167,84.5 127.833,84.5 125.5,84.5C 125.175,91.6866 125.509,98.6866 126.5,105.5C 129.777,105.784 132.943,105.451 136,104.5C 135.855,94.4481 136.688,84.7814 138.5,75.5C 139.658,84.6575 139.824,93.9908 139,103.5C 138.252,105.751 136.752,107.084 134.5,107.5C 131.5,107.5 128.5,107.5 125.5,107.5C 125.5,109.5 125.5,111.5 125.5,113.5C 125.5,113.833 125.5,114.167 125.5,114.5C 124.833,103.833 124.167,93.1667 123.5,82.5C 122.068,80.3531 120.235,80.0198 118,81.5C 117.829,86.5329 117.329,91.5329 116.5,96.5C 115.668,87.5184 115.168,78.5184 115,69.5C 113.867,67.7888 112.367,67.2888 110.5,68C 109.681,77.089 109.181,86.2556 109,95.5C 108.586,95.9574 108.086,96.2907 107.5,96.5C 106.502,87.1904 106.168,77.8571 106.5,68.5C 104.533,68.2606 102.699,68.5939 101,69.5C 100.832,78.5184 100.332,87.5184 99.5,96.5C 98.6691,89.8581 98.1691,83.1915 98,76.5C 96.0312,73.8761 94.1978,73.8761 92.5,76.5C 92.1583,87.3724 91.1583,98.0391 89.5,108.5C 89.1667,107.833 88.8333,107.167 88.5,106.5C 89.2598,105.107 89.9265,103.607 90.5,102C 90.472,100.93 90.1386,100.097 89.5,99.5C 88.5,99.5 87.5,99.5 86.5,99.5C 83.7196,98.9216 81.0529,98.2549 78.5,97.5C 81.962,97.0604 85.6287,97.0604 89.5,97.5C 89.5,95.5 89.5,93.5 89.5,91.5C 77.8333,91.5 66.1667,91.5 54.5,91.5C 53.1889,95.6829 53.1889,100.016 54.5,104.5C 55.1067,104.376 55.44,104.043 55.5,103.5C 56.3382,103.842 56.6716,104.508 56.5,105.5C 55.8333,106.5 55.1667,107.5 54.5,108.5C 52.8417,98.0391 51.8417,87.3724 51.5,76.5C 50.0679,74.3531 48.2345,74.0198 46,75.5C 45.8311,82.5236 45.3311,89.5236 44.5,96.5C 43.668,87.5184 43.168,78.5184 43,69.5C 41.0565,68.193 39.2232,68.193 37.5,69.5C 36.8333,78.1667 36.1667,86.8333 35.5,95.5C 34.8212,86.4317 34.1545,77.265 33.5,68C 31.6332,67.2888 30.1332,67.7888 29,69.5C 28.832,78.5184 28.332,87.5184 27.5,96.5C 26.671,91.5329 26.171,86.5329 26,81.5C 23.7655,80.0198 21.9321,80.3531 20.5,82.5C 20.1667,82.5 19.8333,82.5 19.5,82.5C 19.5,81.8333 19.5,81.1667 19.5,80.5C 19.5,79.1667 19.5,77.8333 19.5,76.5C 17.5,76.5 15.5,76.5 13.5,76.5C 13.5,78.5 13.5,80.5 13.5,82.5C 15.1667,82.5 16.8333,82.5 18.5,82.5C 18.5,83.1667 18.5,83.8333 18.5,84.5C 16.1667,84.5 13.8333,84.5 11.5,84.5C 11.5,81.1667 11.5,77.8333 11.5,74.5C 14.8333,74.5 18.1667,74.5 21.5,74.5C 21.5,75.8333 21.5,77.1667 21.5,78.5C 23.1667,78.5 24.8333,78.5 26.5,78.5C 26.5,72.1667 26.5,65.8333 26.5,59.5C 30.1667,59.5 33.8333,59.5 37.5,59.5C 37.5,61.5 37.5,63.5 37.5,65.5C 39.1667,65.5 40.8333,65.5 42.5,65.5C 42.5,63.5 42.5,61.5 42.5,59.5C 46.1667,59.5 49.8333,59.5 53.5,59.5C 53.5,62.8333 53.5,66.1667 53.5,69.5C 50.8333,69.5 48.1667,69.5 45.5,69.5C 45.5,70.5 45.5,71.5 45.5,72.5C 48.9705,71.8748 51.8038,72.8748 54,75.5C 54.4992,80.1548 54.6658,84.8215 54.5,89.5C 66.1667,89.5 77.8333,89.5 89.5,89.5C 89.3342,84.8215 89.5008,80.1548 90,75.5C 90.4224,73.5743 91.5891,72.5743 93.5,72.5 Z"/></g>
<g><path style="opacity:1" fill="#097fe0" d="M 108.5,61.5 C 110.5,61.5 112.5,61.5 114.5,61.5C 114.5,62.8333 114.5,64.1667 114.5,65.5C 112.738,65.3573 111.071,65.6906 109.5,66.5C 108.548,64.9547 108.215,63.288 108.5,61.5 Z"/></g>
<g><path style="opacity:1" fill="#0483e6" d="M 92.5,61.5 C 94.5,61.5 96.5,61.5 98.5,61.5C 98.5,63.5 98.5,65.5 98.5,67.5C 96.5,67.5 94.5,67.5 92.5,67.5C 92.5,65.5 92.5,63.5 92.5,61.5 Z"/></g>
<g><path style="opacity:1" fill="#0583e6" d="M 45.5,61.5 C 47.5,61.5 49.5,61.5 51.5,61.5C 51.5,63.5 51.5,65.5 51.5,67.5C 49.5,67.5 47.5,67.5 45.5,67.5C 45.5,65.5 45.5,63.5 45.5,61.5 Z"/></g>
<g><path style="opacity:1" fill="#087fe0" d="M 29.5,61.5 C 31.5,61.5 33.5,61.5 35.5,61.5C 35.7852,63.288 35.4519,64.9547 34.5,66.5C 32.9291,65.6906 31.2624,65.3573 29.5,65.5C 29.5,64.1667 29.5,62.8333 29.5,61.5 Z"/></g>
<g><path style="opacity:1" fill="#3b3266" d="M 74.5,59.5 C 78.1667,59.5 81.8333,59.5 85.5,59.5C 85.5,62.8333 85.5,66.1667 85.5,69.5C 81.8333,69.5 78.1667,69.5 74.5,69.5C 74.5,66.1667 74.5,62.8333 74.5,59.5 Z"/></g>
<g><path style="opacity:1" fill="#1276d2" d="M 76.5,61.5 C 78.8333,61.5 81.1667,61.5 83.5,61.5C 83.5,63.5 83.5,65.5 83.5,67.5C 81.1667,67.5 78.8333,67.5 76.5,67.5C 76.5,65.5 76.5,63.5 76.5,61.5 Z"/></g>
<g><path style="opacity:1" fill="#3b3a71" d="M 58.5,59.5 C 62.1667,59.5 65.8333,59.5 69.5,59.5C 69.5,62.8333 69.5,66.1667 69.5,69.5C 65.8333,69.5 62.1667,69.5 58.5,69.5C 58.5,66.1667 58.5,62.8333 58.5,59.5 Z"/></g>
<g><path style="opacity:1" fill="#0286eb" d="M 61.5,61.5 C 63.1667,61.5 64.8333,61.5 66.5,61.5C 66.5,63.5 66.5,65.5 66.5,67.5C 64.8333,67.5 63.1667,67.5 61.5,67.5C 61.5,65.5 61.5,63.5 61.5,61.5 Z"/></g>
<g><path style="opacity:1" fill="#0581e2" d="M 124.5,61.5 C 126.5,61.5 128.5,61.5 130.5,61.5C 130.5,63.5 130.5,65.5 130.5,67.5C 128.5,67.5 126.5,67.5 124.5,67.5C 124.5,65.5 124.5,63.5 124.5,61.5 Z"/></g>
<g><path style="opacity:1" fill="#f9d2e1" d="M 35.5,95.5 C 35.56,96.0431 35.8933,96.3764 36.5,96.5C 37.4982,87.5246 37.8315,78.5246 37.5,69.5C 39.2232,68.193 41.0565,68.193 43,69.5C 43.168,78.5184 43.668,87.5184 44.5,96.5C 45.3311,89.5236 45.8311,82.5236 46,75.5C 48.2345,74.0198 50.0679,74.3531 51.5,76.5C 51.5,87.5 51.5,98.5 51.5,109.5C 52.791,109.737 53.791,109.404 54.5,108.5C 55.1667,107.5 55.8333,106.5 56.5,105.5C 58.0331,103.645 59.6997,101.812 61.5,100C 63.9248,99.0141 65.5915,99.6807 66.5,102C 61.787,110.051 56.287,117.551 50,124.5C 49.5012,128.486 49.3345,132.486 49.5,136.5C 41.8333,136.5 34.1667,136.5 26.5,136.5C 26.6655,132.486 26.4988,128.486 26,124.5C 23.8328,122.17 22.1662,119.503 21,116.5C 20.5001,105.172 20.3335,93.8382 20.5,82.5C 21.9321,80.3531 23.7655,80.0198 26,81.5C 26.171,86.5329 26.671,91.5329 27.5,96.5C 28.332,87.5184 28.832,78.5184 29,69.5C 30.1332,67.7888 31.6332,67.2888 33.5,68C 34.1545,77.265 34.8212,86.4317 35.5,95.5 Z"/></g>
<g><path style="opacity:1" fill="#f9d2e1" d="M 123.5,82.5 C 123.667,93.8382 123.5,105.172 123,116.5C 121.834,119.503 120.167,122.17 118,124.5C 117.501,128.486 117.334,132.486 117.5,136.5C 109.833,136.5 102.167,136.5 94.5,136.5C 94.6655,132.486 94.4988,128.486 94,124.5C 87.8896,117.566 82.3896,110.232 77.5,102.5C 78.0963,99.7536 79.7629,98.9202 82.5,100C 84.4002,102.335 86.4002,104.502 88.5,106.5C 88.8333,107.167 89.1667,107.833 89.5,108.5C 90.209,109.404 91.209,109.737 92.5,109.5C 92.5,98.5 92.5,87.5 92.5,76.5C 94.1978,73.8761 96.0312,73.8761 98,76.5C 98.1691,83.1915 98.6691,89.8581 99.5,96.5C 100.332,87.5184 100.832,78.5184 101,69.5C 102.699,68.5939 104.533,68.2606 106.5,68.5C 106.168,77.8571 106.502,87.1904 107.5,96.5C 108.086,96.2907 108.586,95.9574 109,95.5C 109.181,86.2556 109.681,77.089 110.5,68C 112.367,67.2888 113.867,67.7888 115,69.5C 115.168,78.5184 115.668,87.5184 116.5,96.5C 117.329,91.5329 117.829,86.5329 118,81.5C 120.235,80.0198 122.068,80.3531 123.5,82.5 Z"/></g>
<g><path style="opacity:1" fill="#63507b" d="M 37.5,69.5 C 37.8315,78.5246 37.4982,87.5246 36.5,96.5C 35.8933,96.3764 35.56,96.0431 35.5,95.5C 36.1667,86.8333 36.8333,78.1667 37.5,69.5 Z"/></g>
<g><path style="opacity:1" fill="#5787b8" d="M 90.5,69.5 C 93.1667,69.5 95.8333,69.5 98.5,69.5C 98.5,70.5 98.5,71.5 98.5,72.5C 96.8333,72.5 95.1667,72.5 93.5,72.5C 94.6085,71.71 95.9419,71.21 97.5,71C 94.9644,70.8138 92.631,70.3138 90.5,69.5 Z"/></g>
<g><path style="opacity:1" fill="#3c366b" d="M 74.5,74.5 C 78.1667,74.5 81.8333,74.5 85.5,74.5C 85.5,77.8333 85.5,81.1667 85.5,84.5C 81.8333,84.5 78.1667,84.5 74.5,84.5C 74.5,81.1667 74.5,77.8333 74.5,74.5 Z"/></g>
<g><path style="opacity:1" fill="#826a91" d="M 51.5,76.5 C 51.8417,87.3724 52.8417,98.0391 54.5,108.5C 53.791,109.404 52.791,109.737 51.5,109.5C 51.5,98.5 51.5,87.5 51.5,76.5 Z"/></g>
<g><path style="opacity:1" fill="#886f95" d="M 92.5,76.5 C 92.5,87.5 92.5,98.5 92.5,109.5C 91.209,109.737 90.209,109.404 89.5,108.5C 91.1583,98.0391 92.1583,87.3724 92.5,76.5 Z"/></g>
<g><path style="opacity:1" fill="#0384e8" d="M 19.5,80.5 C 18.6618,80.8417 18.3284,81.5084 18.5,82.5C 16.8333,82.5 15.1667,82.5 13.5,82.5C 13.5,80.5 13.5,78.5 13.5,76.5C 15.5,76.5 17.5,76.5 19.5,76.5C 19.5,77.8333 19.5,79.1667 19.5,80.5 Z"/></g>
<g><path style="opacity:1" fill="#0384e8" d="M 124.5,76.5 C 126.5,76.5 128.5,76.5 130.5,76.5C 130.5,78.5 130.5,80.5 130.5,82.5C 125.839,83.1679 123.839,81.1679 124.5,76.5 Z"/></g>
<g><path style="opacity:1" fill="#1275d1" d="M 76.5,76.5 C 78.8333,76.5 81.1667,76.5 83.5,76.5C 83.5,78.5 83.5,80.5 83.5,82.5C 81.1667,82.5 78.8333,82.5 76.5,82.5C 76.5,80.5 76.5,78.5 76.5,76.5 Z"/></g>
<g><path style="opacity:1" fill="#3b3267" d="M 58.5,74.5 C 62.1667,74.5 65.8333,74.5 69.5,74.5C 69.5,77.8333 69.5,81.1667 69.5,84.5C 65.8333,84.5 62.1667,84.5 58.5,84.5C 58.5,81.1667 58.5,77.8333 58.5,74.5 Z"/></g>
<g><path style="opacity:1" fill="#1275d1" d="M 60.5,76.5 C 62.8333,76.5 65.1667,76.5 67.5,76.5C 67.5,78.5 67.5,80.5 67.5,82.5C 65.1667,82.5 62.8333,82.5 60.5,82.5C 60.5,80.5 60.5,78.5 60.5,76.5 Z"/></g>
<g><path style="opacity:1" fill="#5173a4" d="M 11.5,84.5 C 13.8333,84.5 16.1667,84.5 18.5,84.5C 18.8245,91.6866 18.4912,98.6866 17.5,105.5C 17.5,98.8333 17.5,92.1667 17.5,85.5C 15.2646,85.7947 13.2646,85.4614 11.5,84.5 Z"/></g>
<g><path style="opacity:1" fill="#5277a8" d="M 132.5,84.5 C 130.735,85.4614 128.735,85.7947 126.5,85.5C 126.5,92.1667 126.5,98.8333 126.5,105.5C 125.509,98.6866 125.175,91.6866 125.5,84.5C 127.833,84.5 130.167,84.5 132.5,84.5 Z"/></g>
<g><path style="opacity:1" fill="#918ba5" d="M 9.5,108.5 C 12.2869,107.523 15.2869,107.19 18.5,107.5C 18.5,109.5 18.5,111.5 18.5,113.5C 18.1667,113.5 17.8333,113.5 17.5,113.5C 17.5,111.833 17.5,110.167 17.5,108.5C 14.8333,108.5 12.1667,108.5 9.5,108.5 Z"/></g>
<g><path style="opacity:1" fill="#483a6b" d="M 19.5,82.5 C 19.8333,82.5 20.1667,82.5 20.5,82.5C 20.3335,93.8382 20.5001,105.172 21,116.5C 22.1662,119.503 23.8328,122.17 26,124.5C 26.4988,128.486 26.6655,132.486 26.5,136.5C 34.1667,136.5 41.8333,136.5 49.5,136.5C 49.3345,132.486 49.5012,128.486 50,124.5C 56.287,117.551 61.787,110.051 66.5,102C 65.5915,99.6807 63.9248,99.0141 61.5,100C 59.6997,101.812 58.0331,103.645 56.5,105.5C 56.6716,104.508 56.3382,103.842 55.5,103.5C 55.44,104.043 55.1067,104.376 54.5,104.5C 53.1889,100.016 53.1889,95.6829 54.5,91.5C 54.5,93.5 54.5,95.5 54.5,97.5C 62.4516,96.9285 70.4516,96.9285 78.5,97.5C 81.0529,98.2549 83.7196,98.9216 86.5,99.5C 88.3536,104.421 89.3536,104.421 89.5,99.5C 90.1386,100.097 90.472,100.93 90.5,102C 89.9265,103.607 89.2598,105.107 88.5,106.5C 86.4002,104.502 84.4002,102.335 82.5,100C 79.7629,98.9202 78.0963,99.7536 77.5,102.5C 82.3896,110.232 87.8896,117.566 94,124.5C 94.4988,128.486 94.6655,132.486 94.5,136.5C 102.167,136.5 109.833,136.5 117.5,136.5C 117.334,132.486 117.501,128.486 118,124.5C 120.167,122.17 121.834,119.503 123,116.5C 123.5,105.172 123.667,93.8382 123.5,82.5C 124.167,93.1667 124.833,103.833 125.5,114.5C 125.075,118.607 123.575,122.274 121,125.5C 120.667,129.5 120.333,133.5 120,137.5C 119.5,138 119,138.5 118.5,139C 110.989,139.171 103.655,139.671 96.5,140.5C 94.9102,140.372 93.5769,139.705 92.5,138.5C 91.7315,134.555 91.2315,130.555 91,126.5C 87.2288,122.569 84.0621,118.236 81.5,113.5C 80.9524,111.606 79.9524,109.94 78.5,108.5C 74.1667,107.167 69.8333,107.167 65.5,108.5C 61.55,114.451 57.2167,120.118 52.5,125.5C 51.6735,129.459 51.1735,133.459 51,137.5C 50.5,138 50,138.5 49.5,139C 41.9885,139.171 34.6552,139.671 27.5,140.5C 25.629,140.141 24.129,139.141 23,137.5C 22.6667,133.5 22.3333,129.5 22,125.5C 19.217,121.985 17.717,117.985 17.5,113.5C 17.8333,113.5 18.1667,113.5 18.5,113.5C 19.4942,103.347 19.8276,93.0135 19.5,82.5 Z"/></g>
<g><path style="opacity:1" fill="#65aedd" d="M 68.5,99.5 C 70.8333,99.5 73.1667,99.5 75.5,99.5C 75.5,101.5 75.5,103.5 75.5,105.5C 73.1667,105.5 70.8333,105.5 68.5,105.5C 68.5,103.5 68.5,101.5 68.5,99.5 Z"/></g>
<g><path style="opacity:1" fill="#66b3e2" d="M 86.5,99.5 C 87.5,99.5 88.5,99.5 89.5,99.5C 89.3536,104.421 88.3536,104.421 86.5,99.5 Z"/></g>
<g><path style="opacity:1" fill="#66b5e3" d="M 55.5,103.5 C 54.5655,102.432 54.2322,101.099 54.5,99.5C 55.675,99.281 56.675,99.6143 57.5,100.5C 56.8075,101.518 56.1408,102.518 55.5,103.5 Z"/></g>
<g><path style="opacity:1" fill="#0285ea" d="M 54.5,91.5 C 66.1667,91.5 77.8333,91.5 89.5,91.5C 89.5,93.5 89.5,95.5 89.5,97.5C 85.6287,97.0604 81.962,97.0604 78.5,97.5C 70.4516,96.9285 62.4516,96.9285 54.5,97.5C 54.5,95.5 54.5,93.5 54.5,91.5 Z"/></g>
<g><path style="opacity:1" fill="#9690a9" d="M 134.5,107.5 C 132.052,108.473 129.385,108.806 126.5,108.5C 126.784,110.415 126.451,112.081 125.5,113.5C 125.5,111.5 125.5,109.5 125.5,107.5C 128.5,107.5 131.5,107.5 134.5,107.5 Z"/></g>
<g><path style="opacity:0.805" fill="#e6e7e8" d="M 9.5,108.5 C 12.1667,108.5 14.8333,108.5 17.5,108.5C 17.5,110.167 17.5,111.833 17.5,113.5C 13.2536,114.239 10.587,112.573 9.5,108.5 Z"/></g>
<g><path style="opacity:0.855" fill="#e1e1e4" d="M 81.5,113.5 C 78.1501,113.335 74.8168,113.502 71.5,114C 67.121,119.924 62.621,125.757 58,131.5C 57.6667,135.167 57.3333,138.833 57,142.5C 56.6924,143.308 56.1924,143.975 55.5,144.5C 47.2155,145.636 38.8822,145.803 30.5,145C 28.6243,144.082 27.6243,142.582 27.5,140.5C 34.6552,139.671 41.9885,139.171 49.5,139C 50,138.5 50.5,138 51,137.5C 51.1735,133.459 51.6735,129.459 52.5,125.5C 57.2167,120.118 61.55,114.451 65.5,108.5C 69.8333,107.167 74.1667,107.167 78.5,108.5C 79.9524,109.94 80.9524,111.606 81.5,113.5 Z"/></g>
</svg>
